{"title":"Zanjeer 2013 DVDRip x264 Hindi ESubs - ViZNU [P2PDL]","uid":9033420,"size":476554401,"categoryP":"video","categoryS":"movies","magnet":"?xt=urn:btih:2f2658c3f20b805f46ad3e77157fd3c0b37318ae&amp;dn=Zanjeer+2013+DVDRip+x264+Hindi+ESubs+-+ViZNU+%5BP2PDL%5D&amp;tr=udp%3A%2F%2Ftracker.openbittorrent.com%3A80&amp;tr=udp%3A%2F%2Fopen.demonii.com%3A1337&amp;tr=udp%3A%2F%2Ftracker.coppersurfer.tk%3A6969&amp;tr=udp%3A%2F%2Fexodus.desync.com%3A6969","seeders":1,"leechers":0,"uploader":"ValidusVyto","files":-1,"time":1381461965,"description":"_______ Visit us at our Semi Public Bittorrent Community ________\n  &lt;a href=&quot;\nhttp://p2pdl.com&quot; rel=&quot;nofollow&quot; target=&quot;_NEW&quot;&gt;\nhttp://p2pdl.com&lt;/a&gt;  _____________________________ &lt;a href=&quot; http://p2pdl.com&quot; rel=&quot;nofollow&quot; target=&quot;_NEW&quot;&gt; http://p2pdl.com&lt;/a&gt;\n\n\n\nZanjeer 2013 DVDRip x264 Hindi ESubs - ViZNU\n\n\nGenre:  Action | Thriller\nPlot: ACP Vijay Khanna is transferred to Mumbai where he will have do deal with the\noil mafia led by Rudra Pratap Teja.  \nDirector: Apoorva Lakhia\nStars: Ram Charan, Priyanka Chopra, Sanjay Dutt.\nRated: U/A \n\nIMDb: &lt;a href=&quot;\nhttp://www.imdb.com/title/tt2357489/&quot; rel=&quot;nofollow&quot; target=&quot;_NEW&quot;&gt;\nhttp://www.imdb.com/title/tt2357489/&lt;/a&gt;\n\nTrailer:\n\n\nFormat                         : MPEG-4\nFile size                      : 451 MiB\nDuration                       : 2h 15mn\nOverall bit rate               : 466 Kbps\n\nVideo\nFormat                         : AVC\nDuration                       : 2h 15mn\nBit rate                       : 422 Kbps\nWidth                          : 640 pixels\nHeight                         : 256 pixels\nDisplay aspect ratio           : 2.500\nFrame rate mode                : Constant\nFrame rate                     : 25.000 fps\nBit depth                      : 10 bits\nStream size                    : 409 MiB (91%)\nWriting library                : x264 core 138 r2358\nAudio\nFormat                         : AAC\nBit rate mode                  : Variable\nBit rate                       : 39.9 Kbps\nChannel(s)                     : 2 channels\nChannel positions              : Front: L R\nSampling rate                  : 48.0 KHz\nStream size                    : 38.7 MiB (9%)\n\nSubtitle                       : Yes(English)\n\nSource                         : DVD9\n &lt;a href=&quot;\nhttp://ultraimg.com/images/l0ICh.png&quot; rel=&quot;nofollow&quot; target=&quot;_NEW&quot;&gt;\nhttp://ultraimg.com/images/l0ICh.png&lt;/a&gt; &lt;a href=&quot;\nhttp://ultraimg.com/images/gPN91.png&quot; rel=&quot;nofollow&quot; target=&quot;_NEW&quot;&gt;\nhttp://ultraimg.com/images/gPN91.png&lt;/a&gt; &lt;a href=&quot;\nhttp://ultraimg.com/images/kj8xX.png&quot; rel=&quot;nofollow&quot; target=&quot;_NEW&quot;&gt;\nhttp://ultraimg.com/images/kj8xX.png&lt;/a&gt; &lt;a href=&quot;\nhttp://ultraimg.com/images/6zUFE.png&quot; rel=&quot;nofollow&quot; target=&quot;_NEW&quot;&gt;\nhttp://ultraimg.com/images/6zUFE.png&lt;/a&gt; &lt;a href=&quot;\nhttp://ultraimg.com/images/57zZw.png&quot; rel=&quot;nofollow&quot; target=&quot;_NEW&quot;&gt;\nhttp://ultraimg.com/images/57zZw.png&lt;/a&gt; &lt;a href=&quot;\nhttp://ultraimg.com/images/cWMh9.png&quot; rel=&quot;nofollow&quot; target=&quot;_NEW&quot;&gt;\nhttp://ultraimg.com/images/cWMh9.png&lt;/a&gt; &lt;a href=&quot;\nhttp://ultraimg.com/images/7wHZJ.png&quot; rel=&quot;nofollow&quot; target=&quot;_NEW&quot;&gt;\nhttp://ultraimg.com/images/7wHZJ.png&lt;/a&gt; &lt;a href=&quot;\nhttp://ultraimg.com/images/W6DpN.png&quot; rel=&quot;nofollow&quot; target=&quot;_NEW&quot;&gt;\nhttp://ultraimg.com/images/W6DpN.png&lt;/a&gt;\n\n\n----------------------------------------------------------------------------------------------------\n\n\nEncoded using revolutionary 10bit encoding, which enables us to provide you more crispier \nand sharper images at small sizes, just make sure you follow our instructions without a fault.\nRecommend to you to use latest version of VLC player. Install K-Lite Codec Pack or shark007 codecs\nin case of any kind of problem in playback (For non-VLC Media Player users). Alternatively, install\nCore AVC codecs, the fastest decoder that there is coupled with Community Center Codec Pack and play\non Windows Media Player Classic. Check sample to be sure.\nEnjoy!\n\nEncoder Notes:Looking For Early Access To Anything You Can Provide DVDScr, R5, DVDR, BluRay, Direct\nAudio, Music Releases and Seedboxes. We require dedicated servers, so as to do more \nand fast releases of movies.\nIf You Got anything to offer please contact us at &quot;&lt;a class=&quot;__cf_email__&quot; href=&quot;/cdn-cgi/l/email-protection&quot; data-cfemail=&quot;24545643644c51574c0a474b49&quot;&gt;[email&amp;#160;protected]&lt;/a&gt;&lt;script cf-hash='f9e31' type=&quot;text/javascript&quot;&gt;\n/* &lt;![CDATA[ */!function(){try{var t=&quot;currentScript&quot;in document?document.currentScript:function(){for(var t=document.getElementsByTagName(&quot;script&quot;),e=t.length;e--;)if(t[e].getAttribute(&quot;cf-hash&quot;))return t[e]}();if(t&amp;&amp;t.previousSibling){var e,r,n,i,c=t.previousSibling,a=c.getAttribute(&quot;data-cfemail&quot;);if(a){for(e=&quot;&quot;,r=parseInt(a.substr(0,2),16),n=2;a.length-n;n+=2)i=parseInt(a.substr(n,2),16)^r,e+=String.fromCharCode(i);e=document.createTextNode(e),c.parentNode.replaceChild(e,c)}}}catch(u){}}();/* ]]&gt; */&lt;/script&gt;&quot;.\n\nFacebook Fan Page:  \nSearch P2PDL on FB and hit like!!!\n\nFor more of our team uploads visit @                                             &lt;a href=&quot; http://thepiratebay.se/user/vitamin_x&quot; rel=&quot;nofollow&quot; target=&quot;_NEW&quot;&gt; http://thepiratebay.se/user/vitamin_x&lt;/a&gt;\t","torrent":{"xt":"urn:btih:2f2658c3f20b805f46ad3e77157fd3c0b37318ae","amp;dn":"Zanjeer+2013+DVDRip+x264+Hindi+ESubs+-+ViZNU+%5BP2PDL%5D","amp;tr":["udp%3A%2F%2Ftracker.openbittorrent.com%3A80","udp%3A%2F%2Fopen.demonii.com%3A1337","udp%3A%2F%2Ftracker.coppersurfer.tk%3A6969","udp%3A%2F%2Fexodus.desync.com%3A6969"],"infoHash":"2f2658c3f20b805f46ad3e77157fd3c0b37318ae","infoHashBuffer":{"type":"Buffer","data":[47,38,88,195,242,11,128,95,70,173,62,119,21,127,211,192,179,115,24,174]},"announce":[],"urlList":[]}}